<svg id="Слой_1" data-name="Слой 1" xmlns="http://www.w3.org/2000/svg" viewBox="0 0 500 500"><defs><style>.cls-1,.cls-2{fill:#fff;}.cls-1{fill-opacity:0;}</style></defs><rect class="cls-1" width="500" height="500"/><path class="cls-2" d="M411.4,102.21A112.94,112.94,0,0,0,387.7,69.5a119.44,119.44,0,0,0-45.14-27.32c1.25,3.21,9.85,26.27-2.57,43.94a35.94,35.94,0,0,1-9.06,8.9A120.12,120.12,0,0,0,302.4,77.66,121.62,121.62,0,0,0,250,68a121.62,121.62,0,0,0-52.4,9.71A120.12,120.12,0,0,0,169.07,95a35.94,35.94,0,0,1-9.06-8.9c-12.42-17.67-3.82-40.73-2.57-43.94A119.44,119.44,0,0,0,112.3,69.5a112.94,112.94,0,0,0-23.7,32.71,107.17,107.17,0,0,0-9.06,55,98.19,98.19,0,0,0,7.4,31.7c10.34,24.12,17.06,34,17.06,34,2.42,3.56,6.87,9.7,5.44,16.32-.39,1.79-.62,2.73-3.93,8.44,0,0-.7,1-5.51,11.48-3.16,6.91-4.28,32-2.7,65.3q6,1.77,12.23,3.75,5.91,1.89,11.57,3.83v49l65,47.1a45.11,45.11,0,0,0,1.4,9.14,39.93,39.93,0,0,0,3.62,9.36c4.77,8,14.75,10.5,18,11.17h81.84c3.22-.67,13.2-3.17,18-11.17a39.93,39.93,0,0,0,3.62-9.36,45.11,45.11,0,0,0,1.4-9.14l65-47.1V332q5.66-1.93,11.57-3.83,6.21-2,12.23-3.75c1.58-33.28.46-58.39-2.7-65.3-4.81-10.53-5.51-11.48-5.51-11.48-3.31-5.71-3.54-6.65-3.93-8.44-1.43-6.62,3-12.76,5.44-16.32,0,0,6.72-9.85,17.06-34a98.19,98.19,0,0,0,7.4-31.7A107.17,107.17,0,0,0,411.4,102.21Zm-67.28-3.58c5.76-6.22,12.34-16.91,14.06-36.22A141.26,141.26,0,0,1,367,83.7a121.08,121.08,0,0,1,6.35,31.93,114.64,114.64,0,0,1-6.58,42.57,120.41,120.41,0,0,1-29.66,46.21,69.81,69.81,0,0,1-19.93-24.47,60.52,60.52,0,0,1-5.44-15.62c-.88-4.6-3-16.53,2-29.67,2.75-7.14,6.45-11.55,12-18.17C334.11,106.51,338.91,104.25,344.12,98.63Zm-217.48,17A121.08,121.08,0,0,1,133,83.7a141.26,141.26,0,0,1,8.83-21.29c1.72,19.31,8.3,30,14.06,36.22,5.21,5.62,10,7.88,18.35,17.85,5.53,6.62,9.23,11,12,18.17,5.06,13.14,2.92,25.07,2,29.67a60.52,60.52,0,0,1-5.44,15.62,69.81,69.81,0,0,1-19.93,24.47,120.41,120.41,0,0,1-29.66-46.21A114.64,114.64,0,0,1,126.64,115.63ZM390.87,275.52v38.39l-24,9v50.5l-53.49,39.18a197.78,197.78,0,0,1,5.71-66.58,84.36,84.36,0,0,0-25.83,52,98.49,98.49,0,0,0-16.75-9.74,64.92,64.92,0,0,0-11.67-4.3,61,61,0,0,0-29.75,0,65.08,65.08,0,0,0-11.66,4.3A98.49,98.49,0,0,0,206.71,398a84.36,84.36,0,0,0-25.83-52,197.49,197.49,0,0,1,4.58,23.1,199.27,199.27,0,0,1,1.13,43.48L133.1,373.46V323l-24-9V275.52a106.7,106.7,0,0,1,3.69-14,52.86,52.86,0,0,1,4.76-11,43.85,43.85,0,0,1,4.3-5.95V231.92c6.9.3,32.53.55,53.44-17.92,12.74-11.26,17.91-24.32,20.16-30.21,2.2-5.73,9.15-24.65,3.47-46.42a80.1,80.1,0,0,0-10.71-23.5,81,81,0,0,0-8.11-10.22,42.47,42.47,0,0,1,14.67-10.78,114.4,114.4,0,0,1,11.55,17.55A110.68,110.68,0,0,1,216.27,136,103.82,103.82,0,0,1,218,174.44c-4.8,32-25.2,52.75-32.47,59.52a133.28,133.28,0,0,0,48.32,28.27l12-8.68a31.72,31.72,0,0,1-15.39-14.83c-6.38-13.21-.59-25.84.22-27.52-.06,1.16-.47,12.5,8.26,19.14a21,21,0,0,0,11,4.08,21,21,0,0,0,11-4.08c8.73-6.64,8.32-18,8.26-19.14.81,1.68,6.6,14.31.22,27.52a31.72,31.72,0,0,1-15.39,14.83l12,8.68A133.28,133.28,0,0,0,314.48,234c-7.27-6.77-27.67-27.54-32.47-59.52A103.82,103.82,0,0,1,283.73,136a110.68,110.68,0,0,1,9.91-25.56,114.4,114.4,0,0,1,11.55-17.55,42.47,42.47,0,0,1,14.67,10.78,81,81,0,0,0-8.11,10.22A80.1,80.1,0,0,0,301,137.37c-5.68,21.77,1.27,40.69,3.47,46.42,2.25,5.89,7.42,19,20.16,30.21,20.91,18.47,46.54,18.22,53.44,17.92v12.63a43.85,43.85,0,0,1,4.3,5.95,52.86,52.86,0,0,1,4.76,11A108.1,108.1,0,0,1,390.87,275.52Z"/><path class="cls-2" d="M371.77,259.1a76.44,76.44,0,0,0-8-12.91,51.52,51.52,0,0,1-12.23,29.1,49.22,49.22,0,0,1-19.25,13.59c-19.18,7.2-38.09-1.05-54.12-8A133.88,133.88,0,0,1,250,264.19a133.88,133.88,0,0,1-28.13,16.65c-16,7-34.94,15.24-54.12,8a49.22,49.22,0,0,1-19.25-13.59,51.52,51.52,0,0,1-12.23-29.1,76.44,76.44,0,0,0-8,12.91c-9.23,18.81-8.42,37.08-7.13,47,5.88-.51,33.72-2.28,58.76,17.78,26.22,21,29.89,50.34,30.46,55.83a153.83,153.83,0,0,1,14.38-7.82c7.06-3.36,11.51-5.43,17.82-6.42a52.08,52.08,0,0,1,15,0c6.31,1,10.76,3.06,17.82,6.42a153.83,153.83,0,0,1,14.38,7.82c.57-5.49,4.24-34.83,30.46-55.83,25-20.06,52.88-18.29,58.76-17.78C380.19,296.18,381,277.91,371.77,259.1ZM250,349q-13.56-18.1-27.11-36.23L250,326.7l27.11-13.89Q263.55,330.93,250,349Z"/><path class="cls-2" d="M351.23,255.74a45.8,45.8,0,0,1-11.85,12.68c-13.79,10-29,8.86-33.52,8.46a54.21,54.21,0,0,1-22.56-7.32l52.08-33.15Q343.32,246.09,351.23,255.74Z"/><path class="cls-2" d="M357.39,325.11v42.36l-32.72,23.21a65.2,65.2,0,0,1,32.72-65.57Z"/><path class="cls-2" d="M148.77,255.74a45.8,45.8,0,0,0,11.85,12.68c13.79,10,29,8.86,33.52,8.46a54.21,54.21,0,0,0,22.56-7.32l-52.08-33.15Q156.69,246.09,148.77,255.74Z"/><path class="cls-2" d="M142.61,325.11v42.36l32.72,23.21a65.2,65.2,0,0,0-32.72-65.57Z"/></svg>