<svg id="Слой_1" data-name="Слой 1" xmlns="http://www.w3.org/2000/svg" viewBox="0 0 500 500"><defs><style>.cls-1{fill:#fff;fill-opacity:0;}.cls-2{fill:#fefefe;}.cls-3{fill:#e30313;}</style></defs><rect class="cls-1" width="500" height="500"/><path d="M456.16,69.42c-1.64,6-4.15,14.85-7.63,25.34-8.45,25.51-15.12,45.18-29.14,65.71a169,169,0,0,1-22.65,26.69A139.82,139.82,0,0,0,323.56,76.52q1.45-4.87,2.92-9.77L250,28.5,173.52,66.75q1.47,4.89,2.92,9.77a139.82,139.82,0,0,0-73.18,110.64,169,169,0,0,1-22.65-26.69c-14-20.53-20.69-40.2-29.14-65.71-3.48-10.49-6-19.29-7.63-25.34-8.76,23.36-19.32,62.65-12.43,109.82,1.94,13.29,15.54,97.59,85.15,141.53a162,162,0,0,0,25.64,13.14,195.64,195.64,0,0,0,53.32,111.27q-2.15-16.17-4.3-32.34A197.71,197.71,0,0,0,250,471.5a197.71,197.71,0,0,0,58.78-58.66q-2.16,16.17-4.3,32.34A195.64,195.64,0,0,0,357.8,333.91a162,162,0,0,0,25.64-13.14c69.61-43.94,83.21-128.24,85.15-141.53C475.48,132.07,464.92,92.78,456.16,69.42ZM175.62,261.91,163.05,227l65.39,34.77Zm74.38,7v43.35l-27.63-10.83Zm35.51,85.47L287.65,366,250,357.25,212.36,366l3.46-18.85-3.46-18.73L250,337.24l37.65-8.78-2.26,12.21-47.14,6.85Zm38.87-92.49-52.82-.17L337,227Z"/><polygon class="cls-2" points="228.44 261.74 175.62 261.91 163.05 226.97 228.44 261.74"/><polygon class="cls-2" points="336.95 226.97 324.38 261.91 271.56 261.74 336.95 226.97"/><polygon class="cls-2" points="250 268.93 250 312.28 222.37 301.45 250 268.93"/><polygon class="cls-2" points="285.51 354.4 287.65 366.04 250 357.25 212.36 366.04 215.82 347.19 212.36 328.46 250 337.24 287.65 328.46 285.39 340.68 238.25 347.52 285.51 354.4"/><path class="cls-3" d="M42.91,95.58a234.28,234.28,0,0,0,9.53,31.6c7.47,19.6,18.26,46.94,43.94,66.46,2,1.54,3.71,2.71,4.79,3.44a158.35,158.35,0,0,0,1.25,46.06,176.47,176.47,0,0,1-47-59.94,212.88,212.88,0,0,0,29.59,63.63A94.89,94.89,0,0,1,70.39,235C25.74,190.83,39.06,114.65,42.91,95.58Z"/><path class="cls-3" d="M210,289.55l-19.17,18.54-25-17.65,14.56,42.14A308.76,308.76,0,0,1,125,229.35l-.91,33.18c-3.16-9-28.9-85.65,14.91-142a120,120,0,0,1,36.72-31.11l26.13,52.35L185.21,76.23,250,43.8V175.3l65.48-50.79L250,223.2v36.5l-81.61-74.65-16.64,29.78L134.92,207l25.32,63.68Z"/><polygon class="cls-3" points="290.02 289.6 309.14 307.98 357.07 274.16 365.14 206.99 339.77 270.48 290.02 289.6"/><path class="cls-3" d="M250,370.86v78.26a154.07,154.07,0,0,1-43.54-67.19Z"/></svg>