<?xml version="1.0" encoding="utf-8"?>
<!-- Generator: Adobe Illustrator 26.0.3, SVG Export Plug-In . SVG Version: 6.00 Build 0)  -->
<svg version="1.1" id="Слой_1" xmlns="http://www.w3.org/2000/svg" xmlns:xlink="http://www.w3.org/1999/xlink" x="0px" y="0px"
	 viewBox="0 0 500 500" style="enable-background:new 0 0 500 500;" xml:space="preserve">
<style type="text/css">
	.st0{fill:#FFFFFF;fill-opacity:0;}
	.st1{fill:url(#SVGID_1_);}
	.st2{fill:url(#SVGID_00000093152441152536660570000000199007454939016596_);}
	.st3{fill:url(#SVGID_00000084526473458173399950000015736004765751963570_);}
	.st4{fill:url(#SVGID_00000112633820433362733790000009575009939184455817_);}
	.st5{fill:url(#SVGID_00000103253192269827808230000014073968621650733745_);}
</style>
<rect class="st0" width="500" height="500"/>
<g>
	
		<linearGradient id="SVGID_1_" gradientUnits="userSpaceOnUse" x1="250" y1="425.0736" x2="250" y2="78.9264" gradientTransform="matrix(1 0 0 -1 0 502)">
		<stop  offset="0" style="stop-color:#FFFFFF"/>
		<stop  offset="1" style="stop-color:#BCCBE5"/>
	</linearGradient>
	<path class="st1" d="M302.8,151.5l-53.1-53.7l-52.3,53.6L48,76.9v346l149.2-73.3l52.8,52.9l53.2-52.8l148,73.3L452,77L302.8,151.5z
		 M437.9,400.2l-136.8-67.5L250.4,383l-50.7-50.3L62.3,400.2v-300l137.4,68.7l50.3-50.3l50.1,50.3l137.8-68.7L437.9,400.2z"/>
	
		<linearGradient id="SVGID_00000057845128705029387860000013651123457937169066_" gradientUnits="userSpaceOnUse" x1="390.6324" y1="376.9976" x2="390.6324" y2="126.0328" gradientTransform="matrix(1 0 0 -1 0 502)">
		<stop  offset="0" style="stop-color:#FFFFFF"/>
		<stop  offset="1" style="stop-color:#BCCBE5"/>
	</linearGradient>
	<polygon style="fill:url(#SVGID_00000057845128705029387860000013651123457937169066_);" points="357.9,156.9 423.4,125 
		423.4,201.8 403.1,190 402.8,166.5 381.5,176.7 381,329.7 401.1,339.4 401.2,280.4 390.7,275 390.7,246 423.4,263.6 423.4,376 
		357.9,344.1 	"/>
	
		<linearGradient id="SVGID_00000003792492224363583290000004487291493070010263_" gradientUnits="userSpaceOnUse" x1="300.6616" y1="339.4256" x2="300.6616" y2="179.7648" gradientTransform="matrix(1 0 0 -1 0 502)">
		<stop  offset="0" style="stop-color:#FFFFFF"/>
		<stop  offset="1" style="stop-color:#BCCBE5"/>
	</linearGradient>
	<polygon style="fill:url(#SVGID_00000003792492224363583290000004487291493070010263_);" points="346.4,162.6 346.4,248.9 
		323.9,234 323.9,203.8 312.6,208.7 312.6,322.2 289.7,310.8 289.7,218.8 278.3,223.8 278.3,233.9 254.9,245.8 254.9,206.9 	"/>
	
		<linearGradient id="SVGID_00000101800001317692825750000008085481469679630245_" gradientUnits="userSpaceOnUse" x1="206.4084" y1="332.8808" x2="206.4084" y2="169.988" gradientTransform="matrix(1 0 0 -1 0 502)">
		<stop  offset="0" style="stop-color:#FFFFFF"/>
		<stop  offset="1" style="stop-color:#BCCBE5"/>
	</linearGradient>
	<path style="fill:url(#SVGID_00000101800001317692825750000008085481469679630245_);" d="M245.4,207.3l-78-38.1V332l25.5-12.4V275
		l13.4-6.3l12.6,11.6v26.8l26.4-12.8v-25.9l-12.8-12.8l12.8-5.7L245.4,207.3L245.4,207.3z M219.1,230.9l-26,11.5v-33.7l26,12.8
		V230.9z"/>
	
		<linearGradient id="SVGID_00000166677331481298203730000004433504788086216090_" gradientUnits="userSpaceOnUse" x1="116.1548" y1="376.9168" x2="116.1548" y2="126.0328" gradientTransform="matrix(1 0 0 -1 0 502)">
		<stop  offset="0" style="stop-color:#FFFFFF"/>
		<stop  offset="1" style="stop-color:#BCCBE5"/>
	</linearGradient>
	<polygon style="fill:url(#SVGID_00000166677331481298203730000004433504788086216090_);" points="77.5,125.1 77.5,376 102.4,364.3 
		102.4,283.7 128.2,271.7 128.2,350.9 154.8,338.6 154.8,162.8 128.8,150.7 128.8,237.8 102.4,250.2 102.4,137.4 	"/>
</g>
</svg>
