<svg id="Слой_1" data-name="Слой 1" xmlns="http://www.w3.org/2000/svg" viewBox="0 0 500 500"><defs><style>.cls-1,.cls-2{fill:#fff;}.cls-1{fill-opacity:0;}.cls-3{fill:#111820;}.cls-4{fill:#ff5000;}</style></defs><rect class="cls-1" width="500" height="500"/><path class="cls-2" d="M464.72,89.1C427,66.76,387.56,50.19,346,40.48v0l-25.66,48c-2.39-.39-4.75-.76-7.07-1.09a18.73,18.73,0,0,0-2.47-4c-11.42-13.86-45.38-13.14-57.88-6.92-4,2-8.22,5.41-12.62,10.2a223.72,223.72,0,0,0-54,14.15L154,40.48C112.44,50.19,73,66.76,35.28,89.1L88,180c-4.41,5-11.72,16.62-15.83,24.63a33.27,33.27,0,0,0,10.82,11.23c-14.84,19.54-35,56.09-45.11,81,46.5,50.33,82,75.75,145.59,47.81L250,459.52,464.7,89.17Z"/><path class="cls-3" d="M83.39,203.74a36.33,36.33,0,0,0,13,9.34c-16.86,21.89-36,55.13-47.63,81.73,51.4,51.81,77,66.36,138.47,38.09L250,441.12,452.09,92.53a402.57,402.57,0,0,0-101.38-41.3L325.32,98.8c-6.38-1.19-12.74-2.2-19.08-3a14.94,14.94,0,0,0-2.61-6.5c-7.75-9.4-36.25-9.68-46.61-4.53-3.74,1.86-8,5.76-12.1,10.66a213,213,0,0,0-62.78,17.25L149.29,51.19A402.41,402.41,0,0,0,47.9,92.46L99,180.55a266.79,266.79,0,0,0-15.57,23.19"/><path class="cls-4" d="M163.38,192.66c2.62,2.88,28.2,8.3,27.12-11.84a47.27,47.27,0,0,0-27.12,11.84"/><path class="cls-2" d="M209.33,279.11l2.66-15.4,17.75.77-5.33-20.6c-32.24,19.07-39.47,55.53-46.27,69.79,16-14.28,41.5-30,75.82-35.69a83.12,83.12,0,0,0-14.81-31.18l1.77,26.7-21.79.53-4.54,9.56-13.33,1.21-7.46,10.62,4.29-13.86Z"/><path class="cls-4" d="M140,117.42c1.88-4.72,9.34-12.38,22.37-15.62L143,65.62a390.55,390.55,0,0,0-78.14,31.5l41.74,72a239.52,239.52,0,0,1,31.66-29.33c-1.16-7.79-1-15.65,1.69-22.38M337.61,102,357,65.66a390.81,390.81,0,0,1,78.13,31.53l-23.79,41c-11.86-7.52-28.8-14.62-43.65-19.59l3.87-6.67a250.43,250.43,0,0,0-33.95-10"/><path class="cls-2" d="M262.33,134.29a162.72,162.72,0,0,0-19.46-3.22c7.56-14.4,27-27.11,36.88-24.2-5.28,2.92-14.86,14.28-17.42,27.42m87.11-8.3,3.93-6.78a294.93,294.93,0,0,0-46.55-10.51,90.56,90.56,0,0,1-6.1,27.4C311,143.22,322,157.25,324.4,169.77c-8.51-12.68-23.6-22.41-40.79-29,6.62-12.48,12.21-35.84,7.9-42-3.72-5.34-20.94-6.06-30.08-2.29-9.8,4-22.84,18.73-34.84,33.65,1-5.76,4.22-13.18,8.41-20.39-78.87,14.22-122.81,69.5-136.75,89.8A29.45,29.45,0,0,0,107.6,203c2.49-8.87,18-22.11,25-26.78-5.95,7-12.37,21.41-11.22,27.33,26.84-.26,42.52-34.52,85.23-31.07L199,177.53c1.69,7.95-.27,22.85-19.53,25.77,5.4,1.48,10,3.79,13.38,7.22-40.59-8.8-58.86,9.08-84,5.24-19,26.38-31.94,47.51-45.78,75.56,11.21-6,37.32-7.26,51.64-1.92l.72,13.1c-13.76,3.81-15.86,21.27,5.45,29C134.74,336.55,161,337,171,306.43c9-27.48,26.69-70.22,73.26-85.89l-5.52,10.3c13.51,12,26.24,35.58,29.18,57.52-34.6.69-66,14.88-89.76,38.5,24.23-13.93,47.75-20.91,78.15-21.7,38.43-1,48.55-24.43,37.39-56.14,14.42,11.07,18.65,33.62,9.15,49.87-7.43,12.7-23.32,18.72-43.95,18.25-23.51-.55-44.18,3.25-58.45,9L225.3,369l8.08-13.92,26.1,45.08L405.16,148.88C391.34,140,367.43,130.67,349.44,126"/></svg>